<svg width="90" height="90" viewBox="0 0 90 90" fill="none" xmlns="http://www.w3.org/2000/svg">
<rect width="90" height="90" fill="white"/>
<path d="M34 27H4V57H16V39H28C31.3 39 34 41.7 34 45V48C34 49.5 32.875 50.775 31.375 50.925L31 51H28.75C28.3358 51 28 51.3358 28 51.75V63H34C40.6 63 46 57.975 46 51.375V39C46 32.4 40.6 27 34 27Z" fill="black"/>
<path d="M82 51C82 54.3137 79.3137 57 76 57C72.6863 57 70 54.3137 70 51C70 47.6863 72.6863 45 76 45C79.3137 45 82 47.6863 82 51Z" fill="black"/>
<path d="M82 33C82 36.3137 79.3137 39 76 39C72.6863 39 70 36.3137 70 33C70 29.6863 72.6863 27 76 27C79.3137 27 82 29.6863 82 33Z" fill="black"/>
<path d="M67.8239 9.02149C66.4737 9.02149 65.2735 7.89664 65.1985 6.39684L65.1235 6.02189V3.77219C65.1235 3.39724 64.8234 3.09728 64.5984 3.02229C64.5984 3.02229 64.5984 3.02229 64.5234 3.02229C64.2984 3.02229 64.1483 3.02229 63.9983 3.24726L59.4977 8.12161C58.9726 8.72153 58.2975 9.02149 57.5474 9.02149H35.0443C33.6941 9.02149 32.494 7.89664 32.4189 6.39684L32.3439 6.02189V3.77219C32.3439 3.09728 31.5938 2.72233 31.2188 3.24726L16.2167 19.745C15.7666 20.195 16.0667 21.0199 16.6668 21.0199H50.4965C51.2466 21.0199 51.8466 21.5448 51.9967 22.2947V86.2611C51.9967 86.936 52.8218 87.236 53.2718 86.786L62.4231 76.8873C63.4733 75.7625 63.9983 74.3377 63.9983 72.8379V22.2947C64.0733 21.5448 64.7484 21.0199 65.4985 21.0199H68.874C69.9242 21.0199 70.8243 20.345 71.3494 19.3701L73.2246 15.0207L76 9.02149H67.8239Z" fill="black"/>
</svg>
